<svg width="36" height="36" viewBox="0 0 36 36" fill="none" xmlns="http://www.w3.org/2000/svg">
<path d="M20.288 6.45911C20.3262 6.31634 20.3921 6.18249 20.482 6.06521C20.572 5.94793 20.6841 5.84952 20.8121 5.7756C20.9401 5.70169 21.0814 5.65371 21.2279 5.63442C21.3744 5.61513 21.5233 5.6249 21.6661 5.66317C23.7517 6.20732 25.6545 7.29758 27.1785 8.82166C28.7026 10.3457 29.7929 12.2486 30.337 14.3341C30.3753 14.4769 30.3851 14.6258 30.3658 14.7723C30.3465 14.9188 30.2985 15.0601 30.2246 15.1881C30.1507 15.3161 30.0523 15.4282 29.935 15.5182C29.8177 15.6081 29.6839 15.674 29.5411 15.7122C29.4461 15.7372 29.3482 15.75 29.25 15.7502C29.0023 15.7503 28.7615 15.6686 28.5649 15.5178C28.3684 15.367 28.2271 15.1556 28.163 14.9163C27.7194 13.2135 26.8297 11.6599 25.5856 10.4155C24.3415 9.17116 22.788 8.28115 21.0853 7.83724C20.9424 7.7992 20.8084 7.73336 20.691 7.64349C20.5735 7.55362 20.475 7.44148 20.4009 7.31348C20.3269 7.18548 20.2788 7.04414 20.2594 6.89754C20.24 6.75094 20.2497 6.60195 20.288 6.45911ZM19.9603 12.3372C21.8995 12.8547 23.1455 14.1021 23.663 16.0413C23.7271 16.2806 23.8684 16.492 24.0649 16.6428C24.2615 16.7936 24.5023 16.8753 24.75 16.8752C24.8482 16.875 24.9461 16.8622 25.0411 16.8372C25.1839 16.799 25.3177 16.7331 25.435 16.6432C25.5523 16.5532 25.6507 16.4411 25.7246 16.3131C25.7985 16.1851 25.8465 16.0438 25.8658 15.8973C25.8851 15.7508 25.8753 15.6019 25.837 15.4591C25.117 12.7647 23.2355 10.8832 20.5411 10.1632C20.2528 10.0862 19.9457 10.1268 19.6874 10.2762C19.4291 10.4256 19.2407 10.6715 19.1637 10.9598C19.0867 11.2481 19.1273 11.5552 19.2767 11.8135C19.4261 12.0718 19.672 12.2602 19.9603 12.3372ZM30.1458 23.4086L23.5209 20.44L23.5027 20.4316C23.1587 20.2845 22.7836 20.2255 22.4111 20.2599C22.0386 20.2942 21.6806 20.4209 21.3694 20.6285C21.3327 20.6527 21.2975 20.6789 21.2639 20.7072L17.8411 23.6252C15.6727 22.5719 13.4339 20.35 12.3806 18.2097L15.3028 14.7349C15.3309 14.6997 15.3577 14.6646 15.383 14.6266C15.5861 14.3163 15.7093 13.9605 15.7417 13.591C15.7741 13.2215 15.7146 12.8498 15.5686 12.5088V12.4919L12.5916 5.85583C12.3985 5.41042 12.0666 5.03938 11.6454 4.7981C11.2242 4.55682 10.7362 4.45824 10.2544 4.51708C8.34886 4.76782 6.59978 5.70363 5.33381 7.14971C4.06784 8.5958 3.37155 10.4533 3.375 12.3752C3.375 23.5408 12.4594 32.6252 23.625 32.6252C25.5469 32.6286 27.4044 31.9324 28.8505 30.6664C30.2966 29.4004 31.2324 27.6513 31.4831 25.7458C31.5421 25.2641 31.4437 24.7763 31.2027 24.3551C30.9617 23.9339 30.5909 23.6019 30.1458 23.4086Z" fill="black"/>
</svg>
