<svg width="24" height="24" viewBox="0 0 24 24" fill="none" xmlns="http://www.w3.org/2000/svg">
<path d="M21.8953 7.19438C21.7904 7.05632 21.655 6.94438 21.4997 6.8673C21.3444 6.79021 21.1734 6.75007 21 6.75H4.89656L4.08375 3.82406C4.01798 3.58715 3.8764 3.3783 3.68068 3.22948C3.48496 3.08066 3.24587 3.00006 3 3H1.125C0.826631 3 0.540483 3.11853 0.329505 3.3295C0.118526 3.54048 0 3.82663 0 4.125C0 4.42337 0.118526 4.70952 0.329505 4.9205C0.540483 5.13147 0.826631 5.25 1.125 5.25H2.145L5.36062 16.8272C5.51546 17.3797 5.84651 17.8665 6.30341 18.2136C6.76032 18.5607 7.31809 18.749 7.89187 18.75H17.1562C17.73 18.749 18.2878 18.5607 18.7447 18.2136C19.2016 17.8665 19.5327 17.3797 19.6875 16.8272L22.0903 8.17594C22.1358 8.00837 22.1418 7.83257 22.108 7.66228C22.0741 7.49199 22.0014 7.33184 21.8953 7.19438ZM17.5125 16.2253C17.4908 16.3035 17.4444 16.3725 17.3801 16.422C17.3159 16.4715 17.2373 16.4989 17.1562 16.5H7.89C7.80809 16.4999 7.72847 16.473 7.66329 16.4234C7.59812 16.3738 7.55097 16.3042 7.52906 16.2253L5.52187 9H19.5197L17.5125 16.2253ZM9.375 21.75C9.375 22.1208 9.26503 22.4834 9.059 22.7917C8.85298 23.1 8.56014 23.3404 8.21753 23.4823C7.87492 23.6242 7.49792 23.6613 7.1342 23.589C6.77049 23.5166 6.4364 23.338 6.17417 23.0758C5.91195 22.8136 5.73337 22.4795 5.66103 22.1158C5.58868 21.7521 5.62581 21.3751 5.76773 21.0325C5.90964 20.6899 6.14996 20.397 6.45831 20.191C6.76665 19.985 7.12916 19.875 7.5 19.875C7.99728 19.875 8.47419 20.0725 8.82582 20.4242C9.17745 20.7758 9.375 21.2527 9.375 21.75ZM19.125 21.75C19.125 22.1208 19.015 22.4834 18.809 22.7917C18.603 23.1 18.3101 23.3404 17.9675 23.4823C17.6249 23.6242 17.2479 23.6613 16.8842 23.589C16.5205 23.5166 16.1864 23.338 15.9242 23.0758C15.662 22.8136 15.4834 22.4795 15.411 22.1158C15.3387 21.7521 15.3758 21.3751 15.5177 21.0325C15.6596 20.6899 15.9 20.397 16.2083 20.191C16.5166 19.985 16.8792 19.875 17.25 19.875C17.7473 19.875 18.2242 20.0725 18.5758 20.4242C18.9275 20.7758 19.125 21.2527 19.125 21.75Z" fill="black"/>
</svg>
