<svg width="52" height="38" viewBox="0 0 52 38" fill="none" xmlns="http://www.w3.org/2000/svg">
<path d="M41.7473 4.74346C41.5151 4.1765 41.1354 3.69459 40.6544 3.3563C40.1733 3.01802 39.6116 2.83791 39.0376 2.83789H12.9628C12.3888 2.83795 11.8272 3.01803 11.3463 3.35625C10.8653 3.69446 10.4856 4.17626 10.2534 4.74309C10.0212 5.30992 9.94636 5.9374 10.0381 6.54927C10.1298 7.16114 10.3841 7.73107 10.7701 8.18981L10.7879 8.21221L20.6667 19.5976V31.6375C20.6666 32.2168 20.8122 32.7853 21.0878 33.2823C21.3635 33.7793 21.7589 34.1861 22.2319 34.4594C22.7049 34.7327 23.2377 34.8622 23.7735 34.8341C24.3093 34.806 24.828 34.6213 25.2742 34.2998L30.0151 30.8871C30.421 30.5946 30.7538 30.1984 30.9838 29.7337C31.2138 29.269 31.334 28.7501 31.3337 28.2231V19.5976L41.211 8.21221L41.2288 8.18981C41.615 7.73131 41.8696 7.16155 41.9616 6.54974C42.0537 5.93794 41.9792 5.31043 41.7473 4.74346ZM28.2654 17.5257C27.9544 17.8801 27.7801 18.3493 27.778 18.8377V27.8807L24.2224 30.4407V18.8377C24.2219 18.3502 24.0498 17.8811 23.7409 17.5257L14.3302 6.67783H37.6702L28.2654 17.5257Z" fill="black"/>
</svg>
