<svg width="36" height="36" viewBox="0 0 36 36" fill="none" xmlns="http://www.w3.org/2000/svg">
<path d="M18 0C13.2278 0.00425372 8.65254 1.49568 5.27806 4.14709C1.90357 6.79849 0.00541377 10.3933 0 14.143C0 26.2449 16.3636 35.3848 17.0611 35.7673C17.3363 35.9188 17.6641 36 18 36C18.3359 36 18.6637 35.9188 18.9389 35.7673C19.6364 35.3848 36 26.2449 36 14.143C35.9946 10.3933 34.0964 6.79849 30.7219 4.14709C27.3475 1.49568 22.7722 0.00425372 18 0ZM18 9.00009C19.2946 9.00009 20.5601 9.30172 21.6365 9.86683C22.7129 10.4319 23.5518 11.2351 24.0472 12.1749C24.5426 13.1146 24.6722 14.1487 24.4197 15.1463C24.1671 16.144 23.5437 17.0603 22.6283 17.7796C21.7129 18.4988 20.5466 18.9886 19.277 19.1871C18.0073 19.3855 16.6912 19.2837 15.4952 18.8944C14.2991 18.5052 13.2769 17.846 12.5577 17.0002C11.8384 16.1545 11.4545 15.1602 11.4545 14.143C11.4545 12.779 12.1442 11.4709 13.3717 10.5064C14.5992 9.54193 16.264 9.00009 18 9.00009Z" fill="black"/>
</svg>
