<svg width="36" height="36" viewBox="0 0 36 36" fill="none" xmlns="http://www.w3.org/2000/svg">
<g clip-path="url(#clip0_32_277)">
<path d="M26.3391 22.3681C26.1073 23.5145 25.4867 24.5458 24.5821 25.2874C23.6776 26.029 22.5447 26.4353 21.375 26.4377C18.2432 26.4344 15.2405 25.1888 13.026 22.9742C10.8115 20.7597 9.56585 17.7571 9.5625 14.6252C9.56492 13.4556 9.97128 12.3226 10.7129 11.4181C11.4544 10.5135 12.4857 9.89291 13.6322 9.66118C13.9946 9.58946 14.3706 9.63867 14.7023 9.80125C15.0341 9.96383 15.3034 10.2308 15.4687 10.5612L17.0831 13.7956C17.2155 14.0613 17.2755 14.3572 17.257 14.6535C17.2385 14.9498 17.1421 15.2359 16.9777 15.4831L15.7795 17.2802C16.3964 18.5665 17.4337 19.6038 18.72 20.2207L20.5172 19.0226C20.7643 18.8581 21.0505 18.7618 21.3468 18.7433C21.6431 18.7247 21.939 18.7847 22.2047 18.9171L25.4391 20.5315C25.7694 20.6969 26.0364 20.9661 26.199 21.2979C26.3616 21.6297 26.4108 22.0056 26.3391 22.3681ZM33.1875 18.0002C33.188 20.6018 32.5203 23.1598 31.2484 25.4291C29.9764 27.6985 28.1428 29.6031 25.9234 30.9603C23.704 32.3175 21.1732 33.0819 18.5735 33.1801C15.9739 33.2784 13.3925 32.7072 11.077 31.5213L6.51656 33.0471C6.0201 33.2144 5.48677 33.2398 4.97669 33.1202C4.46661 33.0007 4.00005 32.7411 3.62959 32.3706C3.25914 32.0002 2.99952 31.5336 2.88 31.0236C2.76048 30.5135 2.78581 29.9801 2.95312 29.4837L4.47328 24.9232C3.42941 22.8785 2.86267 20.6237 2.81569 18.3284C2.7687 16.0331 3.24269 13.757 4.20202 11.6713C5.16134 9.58553 6.58104 7.74441 8.35436 6.28635C10.1277 4.82829 12.2085 3.79123 14.4403 3.25314C16.6721 2.71504 18.9969 2.68993 21.2399 3.17967C23.4828 3.66942 25.5855 4.66128 27.3899 6.08068C29.1943 7.50009 30.6535 9.3101 31.6577 11.3746C32.6618 13.4391 33.1849 15.7045 33.1875 18.0002ZM29.8125 18.0002C29.8118 16.1883 29.3943 14.4009 28.5923 12.7762C27.7903 11.1514 26.6253 9.73298 25.1874 8.63052C23.7495 7.52806 22.0773 6.77115 20.3001 6.41835C18.5229 6.06554 16.6883 6.1263 14.9383 6.59593C13.1884 7.06555 11.5699 7.93144 10.2081 9.12663C8.84628 10.3218 7.77768 11.8143 7.08494 13.4885C6.3922 15.1627 6.09389 16.9739 6.21309 18.7818C6.33228 20.5898 6.86579 22.3461 7.77234 23.9149C7.89216 24.1218 7.96666 24.3518 7.9909 24.5896C8.01514 24.8274 7.98858 25.0677 7.91297 25.2945L6.51656 29.4837L10.7058 28.0873C10.8781 28.0299 11.0585 28.0004 11.2402 28.0001C11.5365 28.0006 11.8275 28.0792 12.0839 28.2279C13.8797 29.267 15.9175 29.8148 17.9923 29.8162C20.0671 29.8175 22.1056 29.2724 23.9028 28.2356C25.7 27.1988 27.1924 25.7069 28.2298 23.9102C29.2672 22.1134 29.8131 20.075 29.8125 18.0002Z" fill="black"/>
</g>
<defs>
<clipPath id="clip0_32_277">
<rect width="36" height="36" fill="white"/>
</clipPath>
</defs>
</svg>
